<?xml version="1.0" encoding="UTF-8"?><svg id="Layer_1" xmlns="http://www.w3.org/2000/svg" viewBox="0 0 812.57 202.6"><defs><style>.cls-1{fill:#3772f7;}.cls-1,.cls-2,.cls-3{stroke-width:0px;}.cls-2{fill:#1a1926;}.cls-3{fill:#21d6d6;}</style></defs><path class="cls-2" d="M199.67,51.02v7.87h15.74v50.87h9.6v-50.87h15.68v-7.87h-41.02Z"/><polygon class="cls-2" points="260.01 83.9 280.31 83.9 280.31 76.08 250.36 76.08 250.36 109.76 282.84 109.76 282.84 101.94 260.01 101.94 260.01 83.9"/><rect class="cls-2" x="250.36" y="50.92" width="32.48" height="7.89"/><path class="cls-2" d="M330.89,99.66c-2.73,1.49-5.82,2.29-9.42,2.29-3.9,0-7.31-.93-10.41-2.66-3.04-1.8-5.39-4.34-7.13-7.56-1.74-3.28-2.6-7.13-2.6-11.46s.87-8.12,2.6-11.4c1.73-3.28,4.09-5.76,7.13-7.5,3.1-1.8,6.51-2.66,10.41-2.66,3.59,0,6.69.81,9.42,2.29,2.66,1.55,4.77,3.84,6.32,6.94h11.59c-2.23-5.64-5.76-9.98-10.6-13.07-4.89-3.04-10.47-4.58-16.73-4.58-5.45,0-10.47,1.3-15.06,3.84-4.65,2.54-8.24,6.13-10.9,10.72-2.73,4.52-4.03,9.67-4.03,15.43s1.3,10.9,4.03,15.49c2.66,4.58,6.26,8.12,10.84,10.72,4.58,2.54,9.6,3.84,15.12,3.84,6.26,0,11.83-1.55,16.73-4.59,4.83-3.04,8.36-7.37,10.6-13.01h-11.59c-1.55,3.1-3.66,5.39-6.32,6.94Z"/><path class="cls-2" d="M398.68,50.96v43.8l-29-43.8h-9.6v58.8h9.6v-43.87l29,43.87h9.67v-58.8h-9.67Z"/><path class="cls-2" d="M473.83,64.84c-2.6-4.58-6.26-8.18-10.84-10.72-4.58-2.54-9.67-3.84-15.18-3.84s-10.47,1.3-15.12,3.84c-4.58,2.54-8.18,6.13-10.9,10.72-2.66,4.52-3.97,9.67-3.97,15.43s1.3,10.97,3.97,15.55c2.73,4.58,6.32,8.18,10.9,10.72,4.65,2.54,9.67,3.84,15.12,3.84s10.6-1.3,15.18-3.84c4.58-2.54,8.24-6.13,10.84-10.72,2.66-4.58,3.97-9.79,3.97-15.55s-1.3-10.9-3.97-15.43ZM465.34,91.73c-1.73,3.28-4.09,5.82-7.12,7.62-3.04,1.8-6.51,2.66-10.41,2.66s-7.37-.87-10.41-2.66c-3.04-1.8-5.39-4.34-7.12-7.62-1.74-3.28-2.6-7.13-2.6-11.46s.87-8.12,2.6-11.4c1.73-3.28,4.09-5.76,7.12-7.5,3.04-1.8,6.51-2.66,10.41-2.66s7.37.87,10.41,2.66c3.04,1.73,5.39,4.21,7.12,7.5,1.74,3.28,2.6,7.06,2.6,11.4s-.87,8.18-2.6,11.46Z"/><path class="cls-2" d="M545.83,84.36c-2.35-2.79-5.14-4.46-8.49-5.08,3.1-.93,5.64-2.48,7.62-4.77,1.98-2.29,2.97-5.27,2.97-8.92,0-4.4-1.55-7.99-4.71-10.78-3.1-2.73-7.68-4.09-13.63-4.09h-19.89v59.05h20.45c4.03,0,7.44-.68,10.35-2.04,2.85-1.36,5.02-3.28,6.51-5.64,1.55-2.42,2.29-5.08,2.29-8.12,0-3.66-1.18-6.88-3.47-9.6ZM515.59,55.67h13.57c4.15,0,7.31.93,9.48,2.79,2.17,1.86,3.28,4.46,3.28,7.68s-1.12,5.95-3.28,7.87c-2.17,1.86-5.2,2.79-9.23,2.79h-13.82v-21.13ZM539.76,101.77c-2.42,2.04-5.7,3.04-10.04,3.04h-14.13v-23.11h13.88c4.28,0,7.62,1.05,10.1,3.22,2.54,2.11,3.78,4.89,3.78,8.49s-1.18,6.32-3.59,8.36Z"/><path class="cls-2" d="M566.09,104.99v-54.28h-5.89v59.05h27.14v-4.77h-21.25Z"/><path class="cls-2" d="M647.75,64.59c-2.48-4.59-6.01-8.18-10.47-10.72-4.46-2.6-9.42-3.84-14.93-3.84s-10.47,1.24-14.87,3.84c-4.46,2.54-7.99,6.13-10.53,10.72-2.6,4.58-3.84,9.79-3.84,15.61s1.24,11.03,3.84,15.61c2.54,4.58,6.07,8.18,10.53,10.72,4.4,2.54,9.36,3.84,14.87,3.84s10.47-1.3,14.93-3.84c4.46-2.54,7.99-6.13,10.47-10.72,2.54-4.58,3.84-9.79,3.84-15.61s-1.3-11.03-3.84-15.61ZM642.42,93.46c-1.98,3.78-4.77,6.69-8.24,8.74-3.53,1.98-7.44,3.04-11.83,3.04s-8.36-1.05-11.83-3.04c-3.53-2.04-6.26-4.96-8.3-8.74-2.04-3.84-3.04-8.24-3.04-13.26s.99-9.42,3.04-13.2c2.04-3.78,4.77-6.69,8.3-8.74,3.47-1.98,7.44-3.04,11.83-3.04s8.3,1.05,11.83,3.04c3.47,2.04,6.26,4.96,8.24,8.74,2.04,3.78,3.1,8.18,3.1,13.2s-1.05,9.42-3.1,13.26Z"/><path class="cls-2" d="M701.16,101.83c-3.47,2.23-7.62,3.28-12.52,3.28-4.4,0-8.24-.99-11.71-3.04-3.47-1.98-6.2-4.89-8.18-8.67-1.98-3.78-2.97-8.18-2.97-13.2s.99-9.42,2.97-13.26c1.98-3.78,4.71-6.69,8.18-8.74,3.47-2.04,7.31-3.04,11.71-3.04,4.89,0,9.05,1.12,12.52,3.41,3.47,2.23,6.07,5.33,7.74,9.36h6.94c-2.17-5.7-5.58-10.1-10.28-13.26-4.71-3.1-10.35-4.65-16.91-4.65-5.45,0-10.35,1.24-14.75,3.84-4.4,2.54-7.87,6.13-10.41,10.72-2.54,4.58-3.78,9.79-3.78,15.61s1.24,10.97,3.78,15.55c2.54,4.58,6.01,8.12,10.41,10.72,4.4,2.54,9.29,3.84,14.75,3.84,6.51,0,12.14-1.55,16.91-4.65,4.71-3.1,8.12-7.5,10.28-13.14h-6.94c-1.67,3.97-4.28,7.06-7.74,9.29Z"/><path class="cls-2" d="M739.01,80.2l27.63-29.49h-7.5l-25.65,27.63v-27.63h-5.89v59.05h5.89v-27.26l25.65,27.26h7.74l-27.88-29.55Z"/><path class="cls-2" d="M810.14,85.6c-1.67-2.11-3.66-3.72-6.01-4.77-2.42-1.05-5.51-2.11-9.29-3.16-3.35-.93-6.01-1.74-7.93-2.54-1.92-.81-3.59-1.92-4.83-3.47-1.3-1.55-1.98-3.53-1.98-6.01,0-3.28,1.18-5.82,3.53-7.74,2.42-1.86,5.33-2.79,8.92-2.79,3.84,0,6.88.93,9.11,2.79,2.23,1.92,3.59,4.09,3.97,6.51h6.44c-.5-4.28-2.42-7.68-5.82-10.41-3.35-2.66-7.74-3.97-13.2-3.97-3.72,0-7,.68-9.91,2.04-2.85,1.3-5.08,3.22-6.69,5.58-1.55,2.42-2.35,5.14-2.35,8.18,0,3.66.81,6.57,2.48,8.67,1.61,2.17,3.59,3.78,5.89,4.77,2.35.99,5.45,2.04,9.42,3.1,3.35.93,6.01,1.73,7.93,2.54,1.92.74,3.53,1.92,4.83,3.47s1.92,3.59,1.92,6.13c0,3.1-1.18,5.76-3.47,7.81-2.35,2.04-5.51,3.1-9.54,3.1-4.34,0-7.62-1.12-9.91-3.28-2.23-2.17-3.47-4.71-3.78-7.56h-6.26c.12,2.97.99,5.7,2.73,8.12,1.67,2.42,4.03,4.34,6.94,5.64,2.97,1.36,6.38,2.04,10.29,2.04s7.43-.74,10.35-2.29c2.85-1.49,5.02-3.53,6.51-6.01,1.42-2.48,2.17-5.08,2.17-7.87,0-3.59-.81-6.44-2.42-8.61Z"/><path class="cls-2" d="M347,136.03l-3.53,13.75-3.72-13.75h-2.42l-3.9,13.82-3.53-13.82h-2.23l4.52,16.3,2.35-.06,3.9-13.01,3.78,13.01h2.35l4.71-16.23h-2.29Z"/><path class="cls-2" d="M367.33,137.76v-1.74h-8.74v16.23h8.74v-1.73h-6.57v-5.58h5.89v-1.73h-5.89v-5.45h6.57Z"/><path class="cls-2" d="M388.45,146.07c-.31-.56-.68-1.05-1.18-1.42-.5-.37-.99-.62-1.61-.74.87-.25,1.55-.68,2.04-1.36.56-.62.81-1.42.81-2.35,0-.81-.19-1.49-.56-2.11-.43-.62-.99-1.12-1.8-1.49-.74-.37-1.67-.56-2.79-.56h-5.82v16.23h6.07c1.05,0,1.98-.19,2.79-.56s1.42-.87,1.86-1.55c.43-.68.62-1.43.62-2.23,0-.62-.12-1.24-.43-1.86ZM379.65,137.83h3.53c1.05,0,1.8.19,2.35.68.56.43.81,1.12.81,1.92s-.25,1.49-.81,1.92c-.56.5-1.3.74-2.29.74h-3.59v-5.27ZM385.91,149.78c-.62.5-1.42.74-2.48.74h-3.78v-5.7h3.72c.99,0,1.86.25,2.48.74.62.56.93,1.24.93,2.17,0,.87-.31,1.55-.87,2.04Z"/><path class="cls-2" d="M401.4,150.34c1.49-1.24,2.79-2.29,3.72-3.22.99-.93,1.86-1.98,2.66-3.22.74-1.24,1.12-2.48,1.12-3.78,0-1.55-.43-2.79-1.36-3.66-.99-.87-2.23-1.3-3.84-1.3s-2.85.43-3.84,1.43c-.99.93-1.49,2.29-1.55,4.03h2.04c0-1.12.31-1.98.93-2.66.56-.68,1.36-.99,2.42-.99,1.12,0,1.92.31,2.42.87.5.62.68,1.36.68,2.42s-.37,2.17-1.12,3.28c-.81,1.05-1.73,2.17-2.85,3.16-1.12.99-2.66,2.29-4.65,3.9v1.49h11.21v-1.74h-7.99Z"/><path class="cls-2" d="M443.97,148.61c.37-.5.68-.99.93-1.43l1.92-3.35h-2.29l-1.61,2.66-.37.68-4.89-4.89c-.56-.62-.99-1.18-1.24-1.61-.31-.43-.43-.87-.43-1.36s.19-.99.62-1.3c.37-.37.87-.56,1.49-.56.56,0,1.05.19,1.42.56s.56.87.56,1.49h2.11c.06-.68-.12-1.36-.43-1.92-.31-.56-.74-1.05-1.36-1.36-.62-.31-1.36-.5-2.23-.5-.81,0-1.61.19-2.23.5-.68.31-1.18.74-1.49,1.3-.37.5-.56,1.12-.56,1.8,0,.62.12,1.18.31,1.67.25.5.62,1.05,1.12,1.61-1.3.5-2.23,1.18-2.85,2.04-.68.87-.99,1.86-.99,2.97,0,.99.25,1.86.74,2.6.43.74,1.12,1.36,1.98,1.73.87.43,1.86.62,2.97.62s2.17-.19,3.04-.62c.93-.37,1.74-.99,2.54-1.8l2.11,2.11h2.79l-3.66-3.66ZM439.38,150.28c-.62.31-1.42.5-2.23.5-1.05,0-1.92-.31-2.6-.93-.62-.62-.99-1.36-.99-2.29,0-1.61.99-2.85,2.97-3.59l4.83,4.77c-.62.68-1.3,1.18-1.98,1.55Z"/><path class="cls-2" d="M487.9,136.03l-3.53,13.75-3.72-13.75h-2.42l-3.9,13.82-3.53-13.82h-2.23l4.52,16.3,2.35-.06,3.9-13.01,3.78,13.01h2.35l4.71-16.23h-2.29Z"/><path class="cls-2" d="M508.22,137.76v-1.74h-8.74v16.23h8.74v-1.73h-6.57v-5.58h5.89v-1.73h-5.89v-5.45h6.57Z"/><path class="cls-2" d="M529.35,146.07c-.31-.56-.68-1.05-1.18-1.42s-.99-.62-1.61-.74c.87-.25,1.55-.68,2.04-1.36.56-.62.81-1.42.81-2.35,0-.81-.19-1.49-.56-2.11-.43-.62-.99-1.12-1.8-1.49-.74-.37-1.67-.56-2.79-.56h-5.82v16.23h6.07c1.05,0,1.98-.19,2.79-.56s1.42-.87,1.86-1.55c.43-.68.62-1.43.62-2.23,0-.62-.12-1.24-.43-1.86ZM520.55,137.83h3.53c.99,0,1.8.19,2.35.68.56.43.81,1.12.81,1.92s-.25,1.49-.81,1.92c-.56.5-1.3.74-2.29.74h-3.59v-5.27ZM526.81,149.78c-.62.5-1.42.74-2.48.74h-3.78v-5.7h3.72c.99,0,1.86.25,2.48.74.62.56.93,1.24.93,2.17,0,.87-.31,1.55-.87,2.04Z"/><path class="cls-2" d="M549.3,144.89c-.56-.74-1.36-1.24-2.35-1.49v-.12c.87-.19,1.61-.62,2.11-1.3.56-.74.87-1.55.87-2.54,0-.81-.19-1.55-.62-2.17-.37-.68-.99-1.18-1.73-1.55-.74-.43-1.67-.62-2.73-.62-1.61,0-2.91.43-3.9,1.24s-1.55,1.92-1.61,3.35h2.04c.12-.81.5-1.49,1.05-1.98.62-.5,1.36-.74,2.35-.74s1.74.25,2.29.74c.5.5.81,1.12.81,1.98,0,.93-.37,1.67-1.12,2.11s-1.8.68-3.22.74h-.56v1.74h.5c1.61,0,2.79.25,3.53.74.81.56,1.18,1.36,1.18,2.54,0,.93-.31,1.61-.87,2.23-.56.56-1.36.81-2.48.81-1.05,0-1.92-.25-2.6-.87-.62-.56-1.05-1.36-1.12-2.29h-2.04c.12,1.61.68,2.85,1.73,3.66,1.05.87,2.42,1.3,4.09,1.3,1.12,0,2.11-.19,2.91-.56.81-.43,1.36-.99,1.8-1.67.37-.74.62-1.55.62-2.42,0-1.18-.31-2.11-.93-2.85Z"/><path class="cls-2" d="M583.68,136.03v10.29c0,1.42-.37,2.54-1.05,3.22-.74.68-1.67,1.05-2.91,1.05-1.3,0-2.29-.37-2.97-1.05-.68-.68-1.05-1.8-1.05-3.22v-10.29h-2.11v10.29c0,1.36.25,2.48.81,3.41.5.93,1.24,1.61,2.17,2.04.93.43,1.98.68,3.1.68,1.18,0,2.17-.25,3.1-.68.93-.43,1.67-1.12,2.23-2.04.56-.93.81-2.04.81-3.41v-10.29h-2.11Z"/><path class="cls-2" d="M606.98,136.03v12.89l-8.55-12.89h-2.11v16.23h2.11v-12.89l8.55,12.89h2.11v-16.23h-2.11Z"/><path class="cls-2" d="M619.68,136.03v16.23h2.11v-16.23h-2.11Z"/><path class="cls-2" d="M631.39,136.03v1.74h4.46v14.5h2.11v-14.5h4.4v-1.74h-10.97Z"/><path class="cls-2" d="M660.7,137.76v-1.74h-8.74v16.23h8.74v-1.73h-6.63v-5.58h5.95v-1.73h-5.95v-5.45h6.63Z"/><path class="cls-2" d="M683.56,139.87c-.74-1.24-1.74-2.17-2.97-2.85-1.3-.62-2.85-.99-4.65-.99h-5.02v16.23h5.02c1.8,0,3.35-.31,4.65-.93,1.24-.68,2.23-1.61,2.97-2.79.68-1.24.99-2.66.99-4.34s-.31-3.1-.99-4.34ZM680.77,148.85c-1.12,1.12-2.73,1.67-4.83,1.67h-2.91v-12.76h2.91c2.11,0,3.72.56,4.83,1.73,1.05,1.12,1.61,2.66,1.61,4.71s-.5,3.53-1.61,4.65Z"/><rect class="cls-2" x="199.65" y="143.12" width="113.74" height="1.46"/><rect class="cls-2" x="698.82" y="143.12" width="113.74" height="1.46"/><path class="cls-1" d="M161.36,42.96l-1.19-.68-8.63-5.03-.21-.11-23.96-13.93-10.22-5.94-3.02-1.76-11.88-6.89-.49-.28-6.74-3.93-6.55-3.8-1.05-.61-6.03,3.5-6.14,3.57-2.18,1.27-9.63,5.6-5.22,3.04-9.93,5.76-22.53,13.1-2,1.15-7.89,4.59-.87.51-13.49,7.83-1.5.87v100.44l.68.4,14.31,8.31.51.3,10.24,5.95,5.19,3.01,12.18,7.08,20.31,11.81.84.48,9.83,5.73,1.13.65,6.14,3.58,7.08,4.11v-84.48l-62.23-36.16-.49-.28-10.75-6.24v-17.71l.87.49,9.89,5.75,5.5,3.2,10.23,5.94,21.96,12.76v-16.68l-7.61-4.42-10.23-5.93-15.38-8.94,7.88-4.59,24.53-14.24.8-.46,9.12-5.31,2.69-1.56,6.14-3.57,6.03-3.5,1.05.61,6.55,3.82,7.23,4.2.55.32,10.22,5.95,1.11.63,22.86,13.28,8.84,5.15-14.85,8.62-9.92,5.78-6.92,4.02-11.88,6.9-5.73,3.33-1.5.87v-30.25l7.23,4.21,9.95,5.79,1.93-1.12,8-4.65-8-4.65-11.88-6.89-4.08-2.37-3.15-1.84-6.55-3.8-.52-.3-6.56,3.81-3.37,1.94-2.77,1.62-11.81,6.86-9.95,5.77,9.95,5.79.27.17,11.53-6.71,6.14-3.57v46.39l7.08,4.1.17.1,6.39-3.71,7.23-4.21.74-.43,7.88-4.57,3.27-1.9,21.27-12.35,9.92-5.77,6.23-3.61,8.63-5.02,1.18-.68,13.16-7.65-13.16-7.65ZM25.74,99.36l9.25,5.37,8.85,5.13,14.35,8.34,5.24,3.04,9.58,5.56,2.23,1.31v50.14l-11.81-6.86-5.96-3.46-12.18-7.09-15.44-8.95-4.11-2.4-10.71-6.22-.05.03v-50.19l10.75,6.25Z"/><path class="cls-3" d="M174.55,67.82l-86.09,50.31v84.48l6.55-3.8,7.23-4.2.57-.33,11.31-6.58,31.84-18.5,5.58-3.23,9.61-5.6.21-.11,13.19-7.68v-27.97l-.11-.07.11-.06v-56.66ZM161.36,143.57l-9.82,5.71-4.74,2.75-15.19,8.83-17.49,10.16-11.88,6.89v-50.16l1.4-.81,10.49-6.09,4.75-2.76,14.35-8.34,7.88-4.59,10.43-6.05,9.82-5.71v50.17Z"/><polygon class="cls-3" points="151.54 113.28 151.54 137.85 136.97 146.31 121.77 155.14 114.12 159.59 114.12 135.02 115.82 134.02 131.06 125.18 145.41 116.84 151.54 113.28"/><polygon class="cls-1" points="46.35 125.17 32 116.83 25.87 113.27 25.87 137.84 40.44 146.31 55.65 155.14 63.29 159.58 63.29 135.01 61.59 134.02 46.35 125.17"/></svg>